<svg width="15" height="9" viewBox="0 0 15 9" fill="none" xmlns="http://www.w3.org/2000/svg">
<path d="M1.36719 4.3517C1.07171 4.3517 0.83217 4.59124 0.83217 4.88672C0.83217 5.1822 1.07171 5.42174 1.36719 5.42174L1.36719 4.3517ZM14.4424 5.26503C14.6513 5.0561 14.6513 4.71734 14.4424 4.50841L11.0375 1.10357C10.8286 0.894635 10.4899 0.894635 10.2809 1.10357C10.072 1.31251 10.072 1.65126 10.2809 1.8602L13.3074 4.88672L10.2809 7.91324C10.072 8.12217 10.072 8.46093 10.2809 8.66987C10.4899 8.8788 10.8286 8.8788 11.0375 8.66987L14.4424 5.26503ZM1.36719 5.42174L14.0641 5.42174L14.0641 4.3517L1.36719 4.3517L1.36719 5.42174Z" fill="#667744"/>
</svg>
