<svg width="119" height="20" viewBox="0 0 119 20" fill="none" xmlns="http://www.w3.org/2000/svg">
<g clip-path="url(#clip0_24_919)">
<path d="M10.0341 1.38097C10.3817 0.555299 11.5657 0.5553 11.9133 1.38098L13.965 6.25426C14.1116 6.60235 14.443 6.84018 14.8234 6.8703L20.1488 7.29209C21.0511 7.36355 21.417 8.47596 20.7295 9.05772L16.6721 12.4913C16.3823 12.7366 16.2557 13.1215 16.3442 13.4881L17.5838 18.6221C17.7938 19.4919 16.836 20.1795 16.0635 19.7134L11.5042 16.9621C11.1785 16.7656 10.7689 16.7656 10.4433 16.9621L5.8839 19.7134C5.1114 20.1795 4.15355 19.4919 4.36357 18.6221L5.6032 13.4881C5.69174 13.1215 5.56517 12.7366 5.27537 12.4913L1.21789 9.05772C0.530434 8.47596 0.896304 7.36355 1.7986 7.29209L7.12411 6.8703C7.5045 6.84018 7.83585 6.60235 7.9824 6.25426L10.0341 1.38097Z" fill="#00B67A"/>
<path d="M34.3051 1.38097C34.6527 0.555299 35.8367 0.5553 36.1843 1.38098L38.236 6.25426C38.3826 6.60235 38.714 6.84018 39.0944 6.8703L44.4198 7.29209C45.3221 7.36355 45.6879 8.47596 45.0005 9.05772L40.9431 12.4913C40.6533 12.7366 40.5267 13.1215 40.6152 13.4881L41.8548 18.6221C42.0648 19.4919 41.107 20.1795 40.3345 19.7134L35.7752 16.9621C35.4495 16.7656 35.0399 16.7656 34.7143 16.9621L30.1549 19.7134C29.3824 20.1795 28.4245 19.4919 28.6346 18.6221L29.8742 13.4881C29.9627 13.1215 29.8362 12.7366 29.5464 12.4913L25.4889 9.05772C24.8014 8.47596 25.1673 7.36355 26.0696 7.29209L31.3951 6.8703C31.7755 6.84018 32.1068 6.60235 32.2534 6.25426L34.3051 1.38097Z" fill="#00B67A"/>
<path d="M58.5756 1.38097C58.9232 0.555299 60.1072 0.5553 60.4548 1.38098L62.5065 6.25426C62.6531 6.60235 62.9845 6.84018 63.3649 6.8703L68.6903 7.29209C69.5926 7.36355 69.9585 8.47596 69.271 9.05772L65.2136 12.4913C64.9238 12.7366 64.7972 13.1215 64.8857 13.4881L66.1253 18.6221C66.3354 19.4919 65.3775 20.1795 64.605 19.7134L60.0457 16.9621C59.72 16.7656 59.3104 16.7656 58.9848 16.9621L54.4254 19.7134C53.6529 20.1795 52.6951 19.4919 52.9051 18.6221L54.1447 13.4881C54.2332 13.1215 54.1067 12.7366 53.8169 12.4913L49.7594 9.05772C49.0719 8.47596 49.4378 7.36355 50.3401 7.29209L55.6656 6.8703C56.046 6.84018 56.3774 6.60235 56.5239 6.25426L58.5756 1.38097Z" fill="#00B67A"/>
<path d="M82.8466 1.38097C83.1942 0.555299 84.3782 0.5553 84.7258 1.38098L86.7775 6.25426C86.9241 6.60235 87.2555 6.84018 87.6359 6.8703L92.9613 7.29209C93.8636 7.36355 94.2295 8.47596 93.542 9.05772L89.4846 12.4913C89.1948 12.7366 89.0682 13.1215 89.1567 13.4881L90.3963 18.6221C90.6063 19.4919 89.6485 20.1795 88.876 19.7134L84.3167 16.9621C83.991 16.7656 83.5814 16.7656 83.2558 16.9621L78.6964 19.7134C77.9239 20.1795 76.966 19.4919 77.1761 18.6221L78.4157 13.4881C78.5042 13.1215 78.3777 12.7366 78.0879 12.4913L74.0304 9.05772C73.3429 8.47596 73.7088 7.36355 74.6111 7.29209L79.9366 6.8703C80.317 6.84018 80.6484 6.60235 80.7949 6.25426L82.8466 1.38097Z" fill="#00B67A"/>
<path d="M107.118 1.38097C107.465 0.555299 108.649 0.5553 108.997 1.38098L111.048 6.25426C111.195 6.60235 111.526 6.84018 111.907 6.8703L117.232 7.29209C118.135 7.36355 118.5 8.47596 117.813 9.05772L113.756 12.4913C113.466 12.7366 113.339 13.1215 113.428 13.4881L114.667 18.6221C114.877 19.4919 113.92 20.1795 113.147 19.7134L108.588 16.9621C108.262 16.7656 107.852 16.7656 107.527 16.9621L102.967 19.7134C102.195 20.1795 101.237 19.4919 101.447 18.6221L102.687 13.4881C102.775 13.1215 102.649 12.7366 102.359 12.4913L98.3014 9.05772C97.6139 8.47596 97.9798 7.36355 98.8821 7.29209L104.208 6.8703C104.588 6.84018 104.919 6.60235 105.066 6.25426L107.118 1.38097Z" fill="#00B67A"/>
</g>
<defs>
<clipPath id="clip0_24_919">
<rect width="117.309" height="19.1021" fill="white" transform="translate(0.86084 0.761719)"/>
</clipPath>
</defs>
</svg>
