<svg width="21" height="20" viewBox="0 0 21 20" fill="none" xmlns="http://www.w3.org/2000/svg">
<path d="M9.5346 1.38097C9.88222 0.555299 11.0662 0.5553 11.4138 1.38098L13.4655 6.25426C13.6121 6.60235 13.9435 6.84018 14.3238 6.8703L19.6493 7.29209C20.5516 7.36355 20.9174 8.47596 20.23 9.05772L16.1726 12.4913C15.8828 12.7366 15.7562 13.1215 15.8447 13.4881L17.0843 18.6221C17.2943 19.4919 16.3365 20.1795 15.564 19.7134L11.0047 16.9621C10.679 16.7656 10.2694 16.7656 9.94376 16.9621L5.38438 19.7134C4.61188 20.1795 3.65404 19.4919 3.86406 18.6221L5.10368 13.4881C5.19223 13.1215 5.06566 12.7366 4.77586 12.4913L0.718376 9.05772C0.0309223 8.47596 0.396792 7.36355 1.29909 7.29209L6.62459 6.8703C7.00498 6.84018 7.33634 6.60235 7.48289 6.25426L9.5346 1.38097Z" fill="#00B67A"/>
</svg>
