<svg width="1328" height="52" viewBox="0 0 1328 52" fill="none" xmlns="http://www.w3.org/2000/svg">
<path d="M14.9271 32.6859C15.3528 32.6952 15.7761 32.6196 16.1723 32.4635C16.5685 32.3075 16.9297 32.074 17.2347 31.7768C17.5397 31.4797 17.7824 31.1247 17.9487 30.7327C18.115 30.3407 18.2016 29.9195 18.2034 29.4936V26.6094C18.2034 26.3272 18.0913 26.0565 17.8917 25.8569C17.6921 25.6574 17.4215 25.5453 17.1393 25.5453H14.003C13.7208 25.5453 13.4501 25.6574 13.2506 25.8569C13.051 26.0565 12.9389 26.3272 12.9389 26.6094C12.9389 26.8916 13.051 27.1622 13.2506 27.3618C13.4501 27.5614 13.7208 27.6735 14.003 27.6735H16.0472V29.4936C16.0366 29.7749 15.9192 30.0415 15.7189 30.2392C15.5186 30.4369 15.2504 30.5508 14.9691 30.5577H11.8048C11.5713 30.5577 11.3401 30.5117 11.1243 30.4224C10.9086 30.333 10.7126 30.202 10.5474 30.0369C10.3823 29.8718 10.2513 29.6758 10.162 29.46C10.0726 29.2443 10.0266 29.0131 10.0266 28.7796V23.4591C10.0266 22.9875 10.214 22.5352 10.5474 22.2017C10.8809 21.8683 11.3332 21.6809 11.8048 21.6809H15.8232C16.1054 21.6809 16.376 21.5688 16.5756 21.3693C16.7751 21.1697 16.8873 20.899 16.8873 20.6168C16.8873 20.3346 16.7751 20.064 16.5756 19.8644C16.376 19.6648 16.1054 19.5527 15.8232 19.5527H11.8048C10.7688 19.5527 9.77517 19.9643 9.04258 20.6969C8.31 21.4295 7.89844 22.4231 7.89844 23.4591V28.7796C7.89844 29.8156 8.31 30.8092 9.04258 31.5418C9.77517 32.2744 10.7688 32.6859 11.8048 32.6859H14.9271Z" fill="#322D2D"/>
<path d="M29.4024 32.6846C29.6846 32.6846 29.9552 32.5725 30.1548 32.373C30.3543 32.1734 30.4665 31.9027 30.4665 31.6205V20.6155C30.4696 20.3843 30.3972 20.1583 30.2604 19.9718C30.1236 19.7853 29.9298 19.6484 29.7082 19.582C29.4867 19.5155 29.2495 19.5231 29.0326 19.6034C28.8158 19.6838 28.631 19.8327 28.5063 20.0275L25.202 24.9979L21.8837 20.0275C21.7596 19.8354 21.5762 19.6891 21.3614 19.6108C21.1466 19.5325 20.9121 19.5264 20.6936 19.5934C20.4755 19.6617 20.2847 19.7975 20.1488 19.9812C20.0129 20.1649 19.9389 20.387 19.9375 20.6155V31.6205C19.9375 31.9027 20.0496 32.1734 20.2492 32.373C20.4487 32.5725 20.7194 32.6846 21.0016 32.6846C21.2838 32.6846 21.5545 32.5725 21.754 32.373C21.9536 32.1734 22.0657 31.9027 22.0657 31.6205V24.1438L24.3619 27.5182C24.4648 27.6571 24.5988 27.7701 24.7532 27.8479C24.9076 27.9257 25.0781 27.9662 25.251 27.9662C25.4239 27.9662 25.5944 27.9257 25.7488 27.8479C25.9032 27.7701 26.0372 27.6571 26.1401 27.5182L28.3803 24.1578V31.6345C28.387 31.9061 28.496 32.1652 28.6855 32.3599C28.875 32.5546 29.131 32.6706 29.4024 32.6846Z" fill="#322D2D"/>
<path d="M44.1469 14.1752C44.0788 14.0447 43.9843 13.9298 43.8695 13.8377C43.7547 13.7455 43.6221 13.6783 43.48 13.64C43.3378 13.6018 43.1893 13.5935 43.0438 13.6156C42.8983 13.6377 42.7589 13.6897 42.6346 13.7684C42.5102 13.8471 42.4035 13.9508 42.3213 14.0728C42.239 14.1949 42.1829 14.3326 42.1566 14.4774C42.1303 14.6223 42.1343 14.7709 42.1684 14.9141C42.2025 15.0573 42.266 15.1918 42.3547 15.3093C44.2876 18.3764 45.3626 21.9056 45.4679 25.5294C45.5732 29.1532 44.7049 32.739 42.9534 35.9131C41.2018 39.0873 38.6313 41.7337 35.5094 43.5767C32.3875 45.4198 28.8285 46.392 25.2032 46.3921C20.1973 46.3974 15.3695 44.5352 11.6639 41.1696L16.0043 36.8292C16.1036 36.7299 16.1824 36.612 16.2361 36.4823C16.2898 36.3526 16.3175 36.2135 16.3175 36.0731C16.3175 35.9327 16.2898 35.7937 16.2361 35.664C16.1824 35.5342 16.1036 35.4164 16.0043 35.3171C15.905 35.2178 15.7872 35.139 15.6574 35.0853C15.5277 35.0315 15.3887 35.0039 15.2483 35.0039C15.1078 35.0039 14.9688 35.0315 14.8391 35.0853C14.7094 35.139 14.5915 35.2178 14.4922 35.3171L9.38173 40.4555C9.28182 40.5545 9.20252 40.6722 9.1484 40.802C9.09427 40.9318 9.06641 41.071 9.06641 41.2116C9.06641 41.3522 9.09427 41.4914 9.1484 41.6212C9.20252 41.751 9.28182 41.8687 9.38173 41.9677C13.2835 45.8395 18.4727 48.1417 23.9616 48.436C29.4506 48.7304 34.8561 46.9964 39.1496 43.564C43.4431 40.1316 46.3248 35.2405 47.2462 29.8214C48.1677 24.4024 47.0646 18.8337 44.1469 14.1752Z" fill="#322D2D"/>
<path d="M4.93025 26.1178C4.93766 20.7432 7.07603 15.5907 10.8765 11.7903C14.677 7.98979 19.8294 5.85142 25.2041 5.84401C30.2099 5.83867 35.0377 7.7009 38.7433 11.0665L34.4029 15.4069C34.3036 15.5062 34.2249 15.624 34.1711 15.7538C34.1174 15.8835 34.0897 16.0225 34.0897 16.1629C34.0897 16.3034 34.1174 16.4424 34.1711 16.5721C34.2249 16.7019 34.3036 16.8197 34.4029 16.919C34.5022 17.0183 34.6201 17.0971 34.7498 17.1508C34.8795 17.2045 35.0186 17.2322 35.159 17.2322C35.2994 17.2322 35.4384 17.2045 35.5682 17.1508C35.6979 17.0971 35.8158 17.0183 35.9151 16.919L40.8995 11.9346C41.0206 11.8338 41.1199 11.7096 41.1915 11.5693C41.263 11.429 41.3053 11.2756 41.3158 11.1185C41.3263 10.9614 41.3047 10.8037 41.2524 10.6552C41.2001 10.5067 41.1181 10.3703 41.0115 10.2544C37.1075 6.38711 31.9183 4.08963 26.4308 3.79896C20.9433 3.50829 15.5404 5.24472 11.2497 8.67796C6.959 12.1112 4.07988 17.0017 3.15995 22.4194C2.24002 27.837 3.34345 33.4038 6.26037 38.0609C6.32849 38.1914 6.42293 38.3063 6.53772 38.3984C6.65251 38.4905 6.78517 38.5578 6.9273 38.596C7.06943 38.6343 7.21794 38.6426 7.36345 38.6205C7.50896 38.5984 7.6483 38.5463 7.77267 38.4676C7.89704 38.3889 8.00373 38.2853 8.086 38.1633C8.16827 38.0412 8.22432 37.9034 8.25062 37.7586C8.27693 37.6138 8.2729 37.4651 8.23881 37.3219C8.20471 37.1788 8.14128 37.0442 8.05254 36.9268C6.01567 33.6893 4.93346 29.9428 4.93025 26.1178Z" fill="#322D2D"/>
<path d="M38.8428 19.5527H35.3985C34.7375 19.5527 34.1036 19.8153 33.6362 20.2827C33.1688 20.7501 32.9063 21.384 32.9062 22.045V30.1937C32.9063 30.8547 33.1688 31.4886 33.6362 31.956C34.1036 32.4233 34.7375 32.6859 35.3985 32.6859H38.8428C39.5038 32.6854 40.1379 32.4237 40.6069 31.9579C40.8401 31.7275 41.0247 31.4526 41.1498 31.1496C41.2749 30.8465 41.3378 30.5215 41.335 30.1937V22.045C41.3378 21.7172 41.2749 21.3921 41.1498 21.0891C41.0247 20.7861 40.8401 20.5112 40.6069 20.2808C40.1379 19.8149 39.5038 19.5533 38.8428 19.5527ZM39.1928 30.1937C39.194 30.2414 39.1845 30.2887 39.1652 30.3323C39.1458 30.3759 39.117 30.4146 39.0808 30.4457C39.0513 30.4801 39.0148 30.5078 38.9738 30.5271C38.9327 30.5464 38.8881 30.5569 38.8428 30.5577H35.3985C35.3511 30.5571 35.3043 30.5468 35.261 30.5276C35.2176 30.5083 35.1787 30.4805 35.1465 30.4457C35.1103 30.4146 35.0815 30.3759 35.0621 30.3323C35.0427 30.2887 35.0333 30.2414 35.0344 30.1937V22.045C35.0379 21.9495 35.0774 21.8589 35.1449 21.7914C35.2124 21.7239 35.303 21.6844 35.3985 21.6809H38.8428C38.8881 21.6818 38.9327 21.6922 38.9738 21.7115C39.0148 21.7308 39.0513 21.7586 39.0808 21.7929C39.1156 21.8252 39.1434 21.8641 39.1627 21.9075C39.1819 21.9508 39.1922 21.9976 39.1928 22.045V30.1937Z" fill="#322D2D"/>
<path d="M78.0436 33.1182H75.7436L68.8636 21.3982V33.1182H67.1836V19.1182H69.4836L76.3636 30.8982V19.1182H78.0436V33.1182ZM90.2308 27.7782C90.2308 31.4382 88.2308 33.2582 85.3508 33.2582C82.4508 33.2582 80.4508 31.4182 80.4508 27.7782C80.4508 24.1582 82.4508 22.2982 85.3508 22.2982C88.2308 22.2982 90.2308 24.1382 90.2308 27.7782ZM82.1308 27.7782C82.1308 30.7582 83.4908 31.8782 85.3508 31.8782C87.1908 31.8782 88.5508 30.7582 88.5508 27.7782C88.5508 24.8182 87.1908 23.6782 85.3508 23.6782C83.4908 23.6782 82.1308 24.7982 82.1308 27.7782ZM101.453 33.1182H99.8128V26.3382C99.8128 24.4782 98.8328 23.7182 97.3528 23.7182C95.6728 23.7182 94.1728 24.8582 94.1728 27.2182V33.1182H92.5328V22.4382H94.1528V24.0182C94.8328 23.0182 96.0328 22.2982 97.7328 22.2982C99.9928 22.2982 101.453 23.6582 101.453 25.7782V33.1182ZM109.933 27.6982H104.193V26.2582H109.933V27.6982ZM118.648 18.8982C122.708 18.8982 123.808 21.9582 123.948 23.4582H122.088C121.828 21.6982 120.788 20.4382 118.648 20.4382C115.328 20.4382 114.128 23.3182 114.128 26.1782C114.128 28.7382 114.988 31.8182 118.488 31.8182C121.528 31.8182 122.728 29.5382 122.728 27.5182H118.588V25.9582H124.308V33.1182H122.768V31.1782C122.368 31.8182 121.108 33.3382 118.348 33.3382C113.368 33.3382 112.328 28.9382 112.328 26.1582C112.328 22.7382 114.068 18.8982 118.648 18.8982ZM133.965 31.3582L138.245 19.1182H140.805V33.1182H139.105V20.9582L134.905 33.1182H132.925L128.805 20.9582V33.1182H127.105V19.1182H129.785L133.965 31.3582ZM149.385 18.8982C152.925 18.8982 155.465 21.5382 155.465 26.1382C155.465 30.7382 152.925 33.3382 149.385 33.3382C145.845 33.3382 143.305 30.7382 143.305 26.1382C143.305 21.5382 145.845 18.8982 149.385 18.8982ZM149.385 31.8182C152.005 31.8182 153.665 29.7982 153.665 26.1382C153.665 22.4182 152.005 20.4382 149.385 20.4382C146.765 20.4382 145.105 22.4182 145.105 26.1382C145.105 29.7982 146.765 31.8182 149.385 31.8182Z" fill="#322D2D"/>
<path fill-rule="evenodd" clip-rule="evenodd" d="M285.839 14.1758C285.771 14.0454 285.676 13.9305 285.562 13.8383C285.447 13.7462 285.314 13.6789 285.172 13.6407C285.03 13.6025 284.881 13.5942 284.736 13.6163C284.59 13.6384 284.451 13.6904 284.327 13.7691C284.202 13.8478 284.096 13.9515 284.013 14.0735C283.931 14.1955 283.875 14.3333 283.849 14.4781C283.822 14.6229 283.827 14.7716 283.861 14.9148C283.895 15.058 283.958 15.1925 284.047 15.3099C285.98 18.377 287.055 21.9063 287.16 25.5301C287.265 29.1539 286.397 32.7397 284.646 35.9138C282.894 39.088 280.323 41.7344 277.202 43.5774C274.08 45.4205 270.521 46.3927 266.895 46.3928C261.889 46.3981 257.062 44.5359 253.356 41.1703L255.316 39.2101C255.545 39.452 255.821 39.6449 256.126 39.7773C256.432 39.9096 256.761 39.9786 257.094 39.9802H276.696C277.354 39.9775 277.986 39.7218 278.46 39.2661C278.925 38.7962 279.186 38.1627 279.188 37.502V19.7203C279.188 19.4998 279.119 19.2848 278.992 19.1043L277.592 17.0181L282.787 11.7676C282.887 11.6687 282.966 11.5509 283.02 11.4211C283.074 11.2914 283.102 11.1522 283.102 11.0116C283.102 10.8709 283.074 10.7317 283.02 10.602C282.966 10.4722 282.887 10.3544 282.787 10.2555C278.903 6.29392 273.688 3.91406 268.151 3.57666C262.614 3.23926 257.149 4.96831 252.813 8.42907C248.478 11.8898 245.58 16.8361 244.682 22.3104C243.784 27.7846 244.949 33.3974 247.952 38.062C248.02 38.1925 248.114 38.3074 248.229 38.3995C248.344 38.4916 248.476 38.5589 248.619 38.5971C248.761 38.6354 248.909 38.6437 249.055 38.6216C249.2 38.5995 249.34 38.5474 249.464 38.4687C249.588 38.39 249.695 38.2864 249.777 38.1643C249.859 38.0423 249.916 37.9045 249.942 37.7597C249.968 37.6149 249.964 37.4662 249.93 37.323C249.896 37.1799 249.833 37.0453 249.744 36.9279C247.811 33.8608 246.736 30.3315 246.631 26.7077C246.525 23.0839 247.394 19.4982 249.145 16.324C250.897 13.1499 253.467 10.5035 256.589 8.66042C259.711 6.81739 263.27 5.84519 266.895 5.84509C271.901 5.83975 276.729 7.70197 280.435 11.0676L276.234 15.2679L274.946 13.4338C274.84 13.2983 274.707 13.187 274.555 13.1073C274.403 13.0276 274.235 12.9814 274.064 12.9717H259.699C259.525 12.9722 259.355 13.0144 259.201 13.0948C259.048 13.1752 258.916 13.2915 258.817 13.4338L254.826 19.1183C254.721 19.3089 254.655 19.5182 254.63 19.7343V36.8719L251.074 40.4562C250.974 40.5552 250.895 40.6729 250.841 40.8027C250.786 40.9325 250.759 41.0717 250.759 41.2123C250.759 41.3529 250.786 41.4921 250.841 41.6219C250.895 41.7517 250.974 41.8694 251.074 41.9684C254.976 45.8402 260.165 48.1424 265.654 48.4367C271.143 48.7311 276.548 46.9971 280.842 43.5647C285.135 40.1323 288.017 35.2412 288.938 29.8221C289.86 24.4031 288.757 18.8344 285.839 14.1758ZM256.758 37.502V20.7844H269.024V37.852H257.094C257.005 37.8452 256.922 37.8057 256.86 37.7411C256.798 37.6765 256.762 37.5914 256.758 37.502ZM277.032 37.502C277.029 37.5961 276.989 37.6851 276.921 37.7504C276.853 37.8156 276.762 37.8521 276.668 37.852H271.166V20.0564L274.092 15.856L277.032 20.0564V37.502ZM260.231 15.0999H272.034L269.528 18.6562H257.752L260.231 15.0999Z" fill="#322D2D"/>
<path fill-rule="evenodd" clip-rule="evenodd" d="M264.093 17.9146C264.301 17.9146 264.505 17.8527 264.678 17.7367C264.851 17.6206 264.986 17.4558 265.065 17.2631C265.144 17.0704 265.164 16.8586 265.122 16.6545C265.08 16.4504 264.979 16.2633 264.831 16.1171C264.682 15.9708 264.494 15.8719 264.289 15.833C264.085 15.794 263.873 15.8168 263.682 15.8985C263.49 15.9801 263.327 16.1169 263.213 16.2914C263.1 16.4659 263.04 16.6703 263.043 16.8785C263.047 17.1546 263.159 17.4181 263.356 17.612C263.552 17.806 263.817 17.9147 264.093 17.9146Z" fill="#322D2D"/>
<path d="M320.334 25.9182C320.334 29.5382 318.654 33.1182 313.914 33.1182H308.814V19.1182H314.314C317.494 19.1182 320.334 21.1982 320.334 25.9182ZM318.574 26.0182C318.574 21.8382 316.294 20.6182 313.854 20.6182H310.514V31.6182H313.734C315.854 31.6182 318.574 30.6182 318.574 26.0182ZM329.498 28.9582V27.7382C329.498 27.7382 327.178 28.0382 325.998 28.2182C324.858 28.3782 323.938 28.7582 323.938 30.0182C323.938 31.0782 324.658 31.8782 326.118 31.8782C328.138 31.8782 329.498 30.7182 329.498 28.9582ZM325.098 27.0182C326.118 26.8182 329.498 26.4182 329.498 26.4182V25.8382C329.498 24.3582 328.858 23.6582 326.978 23.6582C324.958 23.6582 324.398 24.5782 324.318 25.6582H322.678C322.678 24.2782 323.498 22.2982 326.978 22.2982C330.638 22.2982 331.138 24.1982 331.138 25.8982V31.3982C331.138 31.8982 331.158 32.6982 331.278 33.1182H329.618C329.618 33.1182 329.578 32.5382 329.578 31.6782C329.058 32.3582 327.918 33.2582 325.738 33.2582C323.678 33.2582 322.238 32.0582 322.238 30.0582C322.238 27.8382 324.018 27.2382 325.098 27.0182ZM335.55 20.3182H333.91V18.3182H335.55V20.3182ZM335.55 33.1182H333.91V22.4382H335.55V33.1182ZM343.963 24.1182H343.243C341.323 24.1182 339.983 24.7782 339.983 27.2982V33.1182H338.343V22.4382H339.963V24.2782C340.663 22.9182 342.083 22.4382 343.203 22.4382H343.963V24.1182ZM352.783 22.4382H354.503L349.983 34.8382C349.523 36.0982 348.943 36.9582 347.403 36.9582H345.563V35.5782H346.943C348.103 35.5782 348.283 34.9582 348.823 33.2782L344.863 22.4382H346.663L349.723 31.2982L352.783 22.4382ZM369.491 20.6382H362.311V25.7782H369.191V27.2982H362.311V33.1182H360.611V19.1182H369.491V20.6382ZM377.42 24.1182H376.7C374.78 24.1182 373.44 24.7782 373.44 27.2982V33.1182H371.8V22.4382H373.42V24.2782C374.12 22.9182 375.54 22.4382 376.66 22.4382H377.42V24.1182ZM386.249 29.4382L387.909 29.4582C387.689 31.3382 386.289 33.2582 383.229 33.2582C380.389 33.2582 378.429 31.4182 378.429 27.7982C378.429 24.4782 380.469 22.2982 383.309 22.2982C386.309 22.2982 387.969 24.5382 387.969 28.0582H380.109C380.149 30.0782 380.989 31.8782 383.349 31.8782C385.089 31.8782 386.109 30.7982 386.249 29.4382ZM380.169 26.7582H386.189C386.029 24.4982 384.729 23.6782 383.269 23.6782C381.629 23.6782 380.369 24.7782 380.169 26.7582ZM397.597 29.4382L399.257 29.4582C399.037 31.3382 397.637 33.2582 394.577 33.2582C391.737 33.2582 389.777 31.4182 389.777 27.7982C389.777 24.4782 391.817 22.2982 394.657 22.2982C397.657 22.2982 399.317 24.5382 399.317 28.0582H391.457C391.497 30.0782 392.337 31.8782 394.697 31.8782C396.437 31.8782 397.457 30.7982 397.597 29.4382ZM391.517 26.7582H397.537C397.377 24.4982 396.077 23.6782 394.617 23.6782C392.977 23.6782 391.717 24.7782 391.517 26.7582Z" fill="#322D2D"/>
<circle cx="507.709" cy="26.1179" r="21.242" stroke="#322D2D" stroke-width="2.16"/>
<g clip-path="url(#clip0_625_1852)">
<path d="M516.784 13.6172C516.409 13.644 516.06 13.8404 515.926 14.1976C515.301 15.8672 512.775 16.9655 510.105 18.1173C505.033 20.3138 498.114 23.3049 500.069 32.823C498.739 34.2784 497.658 36.1178 497.131 38.6625C497.033 39.1446 497.346 39.6179 497.828 39.7161C497.89 39.725 497.953 39.7339 498.006 39.7339C498.417 39.7339 498.792 39.4482 498.881 39.0196C499.31 36.966 500.122 35.457 501.176 34.2338C502.292 34.9481 504.596 36.1624 507.471 36.1624C509.525 36.1624 511.873 35.5463 514.284 33.6981C521.989 27.7872 517.784 14.7779 517.605 14.2243C517.498 13.8672 517.168 13.6172 516.784 13.6172ZM513.212 32.2784C508.533 35.8678 504.274 34.0463 502.489 32.957C503.605 32.0016 504.873 31.2159 506.176 30.4212C508.774 28.8229 511.462 27.1711 512.694 23.9746C512.873 23.5103 512.641 23.0014 512.185 22.8228C511.721 22.6442 511.212 22.8764 511.033 23.3317C510.016 25.9657 507.694 27.3854 505.248 28.8944C504.06 29.6265 502.81 30.3944 501.649 31.3409C500.694 24.1442 505.828 21.912 510.828 19.7513C512.998 18.8138 515.078 17.9119 516.409 16.6083C517.221 20.2334 518.337 28.3408 513.212 32.2784Z" fill="#322D2D"/>
</g>
<path d="M551.777 31.7382L555.757 19.1182H557.497L552.897 33.1182H550.577L545.937 19.1182H547.737L551.777 31.7382ZM565.624 29.4382L567.284 29.4582C567.064 31.3382 565.664 33.2582 562.604 33.2582C559.764 33.2582 557.804 31.4182 557.804 27.7982C557.804 24.4782 559.844 22.2982 562.684 22.2982C565.684 22.2982 567.344 24.5382 567.344 28.0582H559.484C559.524 30.0782 560.364 31.8782 562.724 31.8782C564.464 31.8782 565.484 30.7982 565.624 29.4382ZM559.544 26.7582H565.564C565.404 24.4982 564.104 23.6782 562.644 23.6782C561.004 23.6782 559.744 24.7782 559.544 26.7582ZM578.632 22.4382V33.0582C578.632 35.1182 577.492 37.0982 573.732 37.0982C570.932 37.0982 569.372 35.9782 569.312 33.6182H570.972C570.972 34.8382 571.752 35.7382 573.832 35.7382C576.232 35.7382 576.992 34.6382 576.992 32.8782V31.2182C576.532 31.8782 575.472 32.6982 573.652 32.6982C571.132 32.6982 569.152 30.9982 569.152 27.5382C569.152 23.8782 571.492 22.2982 573.792 22.2982C575.412 22.2982 576.392 22.8382 577.012 23.5982V22.4382H578.632ZM576.992 27.3782C576.992 24.7182 576.032 23.6582 574.012 23.6582C572.212 23.6582 570.812 24.8382 570.812 27.4782C570.812 30.2982 572.172 31.2982 573.872 31.2982C575.792 31.2982 576.992 30.0982 576.992 27.3782ZM588.189 28.9582V27.7382C588.189 27.7382 585.869 28.0382 584.689 28.2182C583.549 28.3782 582.629 28.7582 582.629 30.0182C582.629 31.0782 583.349 31.8782 584.809 31.8782C586.829 31.8782 588.189 30.7182 588.189 28.9582ZM583.789 27.0182C584.809 26.8182 588.189 26.4182 588.189 26.4182V25.8382C588.189 24.3582 587.549 23.6582 585.669 23.6582C583.649 23.6582 583.089 24.5782 583.009 25.6582H581.369C581.369 24.2782 582.189 22.2982 585.669 22.2982C589.329 22.2982 589.829 24.1982 589.829 25.8982V31.3982C589.829 31.8982 589.849 32.6982 589.969 33.1182H588.309C588.309 33.1182 588.269 32.5382 588.269 31.6782C587.749 32.3582 586.609 33.2582 584.429 33.2582C582.369 33.2582 580.929 32.0582 580.929 30.0582C580.929 27.8382 582.709 27.2382 583.789 27.0182ZM601.521 33.1182H599.881V26.3382C599.881 24.4782 598.901 23.7182 597.421 23.7182C595.741 23.7182 594.241 24.8582 594.241 27.2182V33.1182H592.601V22.4382H594.221V24.0182C594.901 23.0182 596.101 22.2982 597.801 22.2982C600.061 22.2982 601.521 23.6582 601.521 25.7782V33.1182Z" fill="#322D2D"/>
<circle cx="710.642" cy="26.1179" r="21.242" stroke="#322D2D" stroke-width="2.16"/>
<g clip-path="url(#clip1_625_1852)">
<path d="M720.524 26.5507L718.256 20.138C717.208 17.1751 714.531 15.1078 711.448 14.7995V13.1562H709.845V14.7995C706.762 15.1078 704.085 17.1752 703.037 20.1381L700.77 26.5507C700.373 27.6719 700.172 28.8472 700.172 30.044C700.172 35.8198 704.871 40.5187 710.647 40.5187C716.422 40.5187 721.121 35.8198 721.121 30.044C721.121 28.8472 720.92 27.6719 720.524 26.5507ZM710.647 38.9155C705.755 38.9155 701.775 34.9358 701.775 30.044C701.775 29.0299 701.945 28.0344 702.281 27.0852L704.549 20.6726C705.461 18.0947 707.911 16.3628 710.647 16.3628C713.382 16.3628 715.833 18.0947 716.744 20.6726L719.012 27.0853C719.348 28.0344 719.518 29.0298 719.518 30.044C719.518 34.9358 715.538 38.9155 710.647 38.9155Z" fill="#322D2D"/>
<path d="M710.649 24.3789C707.526 24.3789 704.984 26.9202 704.984 30.0438C704.984 33.1674 707.526 35.7087 710.649 35.7087C713.773 35.7087 716.314 33.1674 716.314 30.0438C716.314 26.9202 713.773 24.3789 710.649 24.3789ZM710.649 34.1054C708.41 34.1054 706.588 32.2833 706.588 30.0438C706.588 27.8042 708.41 25.9822 710.649 25.9822C712.889 25.9822 714.711 27.8042 714.711 30.0438C714.711 32.2833 712.889 34.1054 710.649 34.1054Z" fill="#322D2D"/>
</g>
<path d="M758.64 33.1182L754.14 26.2982L751.6 29.2782V33.1182H749.9V19.1182H751.6V27.0182L758.26 19.1182H760.22L755.24 24.9982L760.66 33.1182H758.64ZM768.976 29.4382L770.636 29.4582C770.416 31.3382 769.016 33.2582 765.956 33.2582C763.116 33.2582 761.156 31.4182 761.156 27.7982C761.156 24.4782 763.196 22.2982 766.036 22.2982C769.036 22.2982 770.696 24.5382 770.696 28.0582H762.836C762.876 30.0782 763.716 31.8782 766.076 31.8782C767.816 31.8782 768.836 30.7982 768.976 29.4382ZM762.896 26.7582H768.916C768.756 24.4982 767.456 23.6782 765.996 23.6782C764.356 23.6782 763.096 24.7782 762.896 26.7582ZM777.928 33.0582C777.928 33.0582 777.108 33.1782 776.068 33.1782C774.268 33.1782 773.668 32.4182 773.668 30.6382V23.8182H771.908V22.4382H773.668V19.1182H775.308V22.4382H778.068V23.8182H775.308V30.2182C775.308 31.5782 775.608 31.7582 776.688 31.7582C776.988 31.7582 777.828 31.6982 777.928 31.6982V33.0582ZM788.963 27.7782C788.963 31.4382 786.963 33.2582 784.083 33.2582C781.183 33.2582 779.183 31.4182 779.183 27.7782C779.183 24.1582 781.183 22.2982 784.083 22.2982C786.963 22.2982 788.963 24.1382 788.963 27.7782ZM780.863 27.7782C780.863 30.7582 782.223 31.8782 784.083 31.8782C785.923 31.8782 787.283 30.7582 787.283 27.7782C787.283 24.8182 785.923 23.6782 784.083 23.6782C782.223 23.6782 780.863 24.7982 780.863 27.7782Z" fill="#322D2D"/>
<circle cx="897.576" cy="26.1179" r="21.2419" stroke="#322D2D" stroke-width="2.1602"/>
<g clip-path="url(#clip2_625_1852)">
<path d="M910.09 31.2568L907.179 28.3457C910.518 21.3391 905.386 13.1562 897.575 13.1562C889.777 13.1562 884.624 21.325 887.97 28.3457L885.059 31.2568C884.249 32.067 884.593 33.4496 885.692 33.7842L888.925 34.7664L889.907 38C890.241 39.0942 891.62 39.4458 892.435 38.6329L896.684 34.3831C897.269 34.4316 897.86 34.4332 898.465 34.3831L902.714 38.6329C903.526 39.4443 904.908 39.0964 905.242 38L906.224 34.7664L909.457 33.7842C910.558 33.4491 910.899 32.0656 910.09 31.2568ZM891.361 37.5585L890.378 34.3249C890.231 33.8389 889.853 33.4607 889.367 33.3129L886.133 32.3307L888.751 29.7132C890.172 31.8234 892.33 33.3985 894.853 34.0668L891.361 37.5585ZM889.848 28.6156C886.032 22.5391 890.472 14.6751 897.575 14.6751C904.735 14.6751 909.082 22.5937 905.301 28.6155C901.721 34.3256 893.428 34.3248 889.848 28.6156ZM905.782 33.3128C905.296 33.4607 904.918 33.8389 904.77 34.3249L903.788 37.5585L900.296 34.0667C902.819 33.3984 904.977 31.8233 906.399 29.7131L909.016 32.3306L905.782 33.3128Z" fill="#322D2D"/>
<path d="M897.572 16.1934C892.49 16.1934 888.816 21.1265 890.308 26.0046C891.58 30.1707 896.09 32.3843 900.124 30.9408C903.062 29.8892 905.167 27.0781 905.167 23.7876C905.167 19.6001 901.76 16.1934 897.572 16.1934ZM893.477 28.2702C889.376 24.5271 892.073 17.7122 897.572 17.7122C901.315 17.7122 904.164 21.0796 903.572 24.7404C902.829 29.4855 897.053 31.5428 893.477 28.2702Z" fill="#322D2D"/>
<path d="M899.879 21.7336L896.531 24.2183L895.372 22.9828C895.085 22.6769 894.604 22.6616 894.298 22.9487C893.993 23.2357 893.977 23.7163 894.264 24.0221L895.887 25.7511C896.151 26.0325 896.584 26.0709 896.893 25.8412L900.784 22.9533C901.121 22.7033 901.191 22.2276 900.941 21.8908C900.691 21.5541 900.216 21.4837 899.879 21.7336Z" fill="#322D2D"/>
<circle cx="897.577" cy="23.9578" r="7.92072" fill="#F9F9F9"/>
<path d="M891.615 23.5783C891.615 24.3458 891.848 25.1749 892.808 25.1749C893.733 25.1749 893.945 24.524 893.959 24.1608H892.814V23.3385H894.863V25.9355H894.007V25.4833C893.698 25.8259 893.267 26.0109 892.739 26.0109C891.136 26.0109 890.615 24.7912 890.615 23.5509C890.615 22.4066 891.177 21.0635 892.821 21.0635C894.26 21.0635 894.706 22.0708 894.713 22.6807H893.726C893.712 22.338 893.465 21.8995 892.794 21.8995C892.061 21.8995 891.615 22.4819 891.615 23.5783ZM898.071 24.6267L899.037 21.1389H900.524V25.9355H899.578V22.3655L898.564 25.9355H897.577L896.563 22.3655V25.9355H895.618V21.1389H897.105L898.071 24.6267ZM905.012 22.6807C905.012 23.1124 904.875 23.4892 904.621 23.7702C904.333 24.0923 903.874 24.291 903.312 24.291H902.291V25.9355H901.346V21.1389H903.47C904.313 21.1389 905.012 21.7145 905.012 22.6807ZM904.025 22.7081C904.025 22.2969 903.813 21.9543 903.196 21.9543H902.291V23.4755H903.175C903.819 23.4755 904.025 23.0987 904.025 22.7081Z" fill="#322D2D"/>
</g>
<path d="M942.625 18.8982C946.685 18.8982 947.785 21.9582 947.925 23.4582H946.065C945.805 21.6982 944.765 20.4382 942.625 20.4382C939.305 20.4382 938.105 23.3182 938.105 26.1782C938.105 28.7382 938.965 31.8182 942.465 31.8182C945.505 31.8182 946.705 29.5382 946.705 27.5182H942.565V25.9582H948.285V33.1182H946.745V31.1782C946.345 31.8182 945.085 33.3382 942.325 33.3382C937.345 33.3382 936.305 28.9382 936.305 26.1582C936.305 22.7382 938.045 18.8982 942.625 18.8982ZM957.942 31.3582L962.222 19.1182H964.782V33.1182H963.082V20.9582L958.882 33.1182H956.902L952.782 20.9582V33.1182H951.082V19.1182H953.762L957.942 31.3582ZM977.681 23.2782C977.681 25.8782 975.901 27.7782 972.781 27.7782H969.481V33.1182H967.781V19.1182H973.521C975.761 19.1182 977.681 20.5982 977.681 23.2782ZM975.941 23.4182C975.941 21.6182 974.841 20.6382 973.161 20.6382H969.481V26.2582H972.941C974.741 26.2582 975.941 25.0782 975.941 23.4182ZM989.923 31.8182C992.263 31.8182 993.343 30.2982 993.503 28.7382H995.343C995.263 30.3382 993.923 33.3382 989.903 33.3382C985.543 33.3382 983.883 30.1982 983.883 26.0982C983.883 22.4782 985.523 18.8982 989.983 18.8982C994.063 18.8982 995.163 21.9582 995.263 23.4582H993.403C993.223 21.6982 992.123 20.4382 989.943 20.4382C986.543 20.4382 985.683 23.5382 985.683 26.1382C985.683 28.6982 986.543 31.8182 989.923 31.8182ZM1004.96 29.4382L1006.62 29.4582C1006.4 31.3382 1005 33.2582 1001.94 33.2582C999.102 33.2582 997.142 31.4182 997.142 27.7982C997.142 24.4782 999.182 22.2982 1002.02 22.2982C1005.02 22.2982 1006.68 24.5382 1006.68 28.0582H998.822C998.862 30.0782 999.702 31.8782 1002.06 31.8782C1003.8 31.8782 1004.82 30.7982 1004.96 29.4382ZM998.882 26.7582H1004.9C1004.74 24.4982 1003.44 23.6782 1001.98 23.6782C1000.34 23.6782 999.082 24.7782 998.882 26.7582ZM1014.61 24.1182H1013.89C1011.97 24.1182 1010.63 24.7782 1010.63 27.2982V33.1182H1008.99V22.4382H1010.61V24.2782C1011.31 22.9182 1012.73 22.4382 1013.85 22.4382H1014.61V24.1182ZM1022.02 33.0582C1022.02 33.0582 1021.2 33.1782 1020.16 33.1782C1018.36 33.1782 1017.76 32.4182 1017.76 30.6382V23.8182H1016V22.4382H1017.76V19.1182H1019.4V22.4382H1022.16V23.8182H1019.4V30.2182C1019.4 31.5782 1019.7 31.7582 1020.78 31.7582C1021.08 31.7582 1021.92 31.6982 1022.02 31.6982V33.0582ZM1025.81 20.3182H1024.17V18.3182H1025.81V20.3182ZM1025.81 33.1182H1024.17V22.4382H1025.81V33.1182ZM1033.7 23.8182H1031.22V33.1182H1029.58V23.8182H1027.7V22.4382H1029.58V20.6382C1029.58 19.1182 1030.52 18.1982 1032.2 18.1982C1032.9 18.1982 1033.84 18.2382 1033.84 18.2382V19.6582C1033.74 19.6382 1032.94 19.6182 1032.66 19.6182C1031.8 19.6182 1031.22 19.7182 1031.22 20.8382V22.4382H1033.7V23.8182ZM1036.98 20.3182H1035.34V18.3182H1036.98V20.3182ZM1036.98 33.1182H1035.34V22.4382H1036.98V33.1182ZM1047.09 29.4382L1048.75 29.4582C1048.53 31.3382 1047.13 33.2582 1044.07 33.2582C1041.23 33.2582 1039.27 31.4182 1039.27 27.7982C1039.27 24.4782 1041.31 22.2982 1044.15 22.2982C1047.15 22.2982 1048.81 24.5382 1048.81 28.0582H1040.95C1040.99 30.0782 1041.83 31.8782 1044.19 31.8782C1045.93 31.8782 1046.95 30.7982 1047.09 29.4382ZM1041.01 26.7582H1047.03C1046.87 24.4982 1045.57 23.6782 1044.11 23.6782C1042.47 23.6782 1041.21 24.7782 1041.01 26.7582ZM1058.8 33.1182V31.6182C1058.26 32.3982 1057.08 33.2582 1055.24 33.2582C1052.18 33.2582 1050.62 30.9582 1050.62 27.8182C1050.62 24.7582 1052.3 22.2982 1055.56 22.2982C1057.42 22.2982 1058.44 23.2382 1058.78 23.6982V18.3182H1060.42V33.1182H1058.8ZM1052.3 27.7982C1052.3 30.4182 1053.46 31.9182 1055.48 31.9182C1057.78 31.9182 1058.8 30.5382 1058.8 27.6982C1058.8 24.8382 1057.8 23.6382 1055.6 23.6382C1053.32 23.6382 1052.3 25.5782 1052.3 27.7982Z" fill="#322D2D"/>
<circle cx="1169.51" cy="26.1179" r="21.2419" stroke="#322D2D" stroke-width="2.1602"/>
<g clip-path="url(#clip3_625_1852)">
<path d="M1182.03 31.2568L1179.12 28.3457C1182.46 21.3391 1177.32 13.1562 1169.51 13.1562C1161.71 13.1562 1156.56 21.325 1159.91 28.3457L1157 31.2568C1156.19 32.067 1156.53 33.4496 1157.63 33.7842L1160.86 34.7664L1161.84 38C1162.18 39.0942 1163.56 39.4458 1164.37 38.6329L1168.62 34.3831C1169.21 34.4316 1169.8 34.4332 1170.4 34.3831L1174.65 38.6329C1175.46 39.4443 1176.85 39.0964 1177.18 38L1178.16 34.7664L1181.39 33.7842C1182.5 33.4491 1182.84 32.0656 1182.03 31.2568ZM1163.3 37.5585L1162.32 34.3249C1162.17 33.8389 1161.79 33.4607 1161.3 33.3129L1158.07 32.3307L1160.69 29.7132C1162.11 31.8234 1164.27 33.3985 1166.79 34.0668L1163.3 37.5585ZM1161.79 28.6156C1157.97 22.5391 1162.41 14.6751 1169.51 14.6751C1176.67 14.6751 1181.02 22.5937 1177.24 28.6155C1173.66 34.3256 1165.37 34.3248 1161.79 28.6156ZM1177.72 33.3128C1177.23 33.4607 1176.86 33.8389 1176.71 34.3249L1175.73 37.5585L1172.23 34.0667C1174.76 33.3984 1176.91 31.8233 1178.34 29.7131L1180.95 32.3306L1177.72 33.3128Z" fill="#322D2D"/>
<path d="M1169.51 16.1934C1164.43 16.1934 1160.75 21.1265 1162.25 26.0046C1163.52 30.1707 1168.03 32.3843 1172.06 30.9408C1175 29.8892 1177.1 27.0781 1177.1 23.7876C1177.1 19.6001 1173.7 16.1934 1169.51 16.1934ZM1165.41 28.2702C1161.31 24.5271 1164.01 17.7122 1169.51 17.7122C1173.25 17.7122 1176.1 21.0796 1175.51 24.7404C1174.77 29.4855 1168.99 31.5428 1165.41 28.2702Z" fill="#322D2D"/>
<path d="M1171.82 21.7336L1168.47 24.2183L1167.31 22.9828C1167.02 22.6769 1166.54 22.6616 1166.24 22.9487C1165.93 23.2357 1165.91 23.7163 1166.2 24.0221L1167.82 25.7511C1168.09 26.0325 1168.52 26.0709 1168.83 25.8412L1172.72 22.9533C1173.06 22.7033 1173.13 22.2276 1172.88 21.8908C1172.63 21.5541 1172.15 21.4837 1171.82 21.7336Z" fill="#322D2D"/>
<circle cx="1169.51" cy="23.9578" r="7.92072" fill="#F9F9F9"/>
<path d="M1167.37 25.9355H1166.22L1164.41 22.5642V25.9355H1163.46V21.1389H1164.66L1166.43 24.4828V21.1389H1167.37V25.9355ZM1171.82 24.4486C1171.82 25.5038 1171.05 26.0109 1169.86 26.0109C1168.79 26.0109 1168.02 25.497 1167.99 24.4212H1168.97C1168.97 24.9488 1169.31 25.2092 1169.9 25.2092C1170.3 25.2092 1170.86 25.0996 1170.86 24.5582C1170.86 23.7702 1169.24 24.1402 1168.48 23.4687C1168.25 23.27 1168.08 22.9479 1168.08 22.4819C1168.08 21.5363 1168.92 21.0635 1169.84 21.0635C1170.8 21.0635 1171.66 21.413 1171.73 22.5642H1170.76C1170.73 22.3038 1170.66 21.8447 1169.86 21.8447C1169.32 21.8447 1169.04 22.0708 1169.04 22.4134C1169.04 23.1329 1170.27 22.9479 1171.1 23.3522C1171.49 23.5372 1171.82 23.8456 1171.82 24.4486ZM1175.73 21.9817H1173.35V23.2494H1175.57V24.106H1173.35V25.9355H1172.4V21.1389H1175.73V21.9817Z" fill="#322D2D"/>
</g>
<path d="M1219.45 33.1182H1217.15L1210.27 21.3982V33.1182H1208.59V19.1182H1210.89L1217.77 30.8982V19.1182H1219.45V33.1182ZM1232.48 29.1582C1232.48 31.6382 1230.72 33.3382 1227.04 33.3382C1224.32 33.3382 1221.9 32.1782 1221.86 29.0182H1223.7C1223.7 30.8582 1224.92 31.8982 1227.18 31.8982C1228.68 31.8982 1230.78 31.3382 1230.78 29.3182C1230.78 25.3382 1222.14 28.3782 1222.14 22.7982C1222.14 20.1182 1224.74 18.8982 1227.16 18.8982C1230.12 18.8982 1232.14 20.2382 1232.26 23.0382H1230.46C1230.38 21.4382 1229.54 20.3182 1227.16 20.3182C1225.14 20.3182 1223.86 21.2582 1223.86 22.7182C1223.86 23.6382 1224.36 24.1982 1225.12 24.5582C1227.52 25.6982 1232.48 25.0982 1232.48 29.1582ZM1243.66 20.6382H1236.48V25.7782H1243.36V27.2982H1236.48V33.1182H1234.78V19.1182H1243.66V20.6382ZM1256 31.8182C1258.34 31.8182 1259.42 30.2982 1259.58 28.7382H1261.42C1261.34 30.3382 1260 33.3382 1255.98 33.3382C1251.62 33.3382 1249.96 30.1982 1249.96 26.0982C1249.96 22.4782 1251.6 18.8982 1256.06 18.8982C1260.14 18.8982 1261.24 21.9582 1261.34 23.4582H1259.48C1259.3 21.6982 1258.2 20.4382 1256.02 20.4382C1252.62 20.4382 1251.76 23.5382 1251.76 26.1382C1251.76 28.6982 1252.62 31.8182 1256 31.8182ZM1271.04 29.4382L1272.7 29.4582C1272.48 31.3382 1271.08 33.2582 1268.02 33.2582C1265.18 33.2582 1263.22 31.4182 1263.22 27.7982C1263.22 24.4782 1265.26 22.2982 1268.1 22.2982C1271.1 22.2982 1272.76 24.5382 1272.76 28.0582H1264.9C1264.94 30.0782 1265.78 31.8782 1268.14 31.8782C1269.88 31.8782 1270.9 30.7982 1271.04 29.4382ZM1264.96 26.7582H1270.98C1270.82 24.4982 1269.52 23.6782 1268.06 23.6782C1266.42 23.6782 1265.16 24.7782 1264.96 26.7582ZM1280.69 24.1182H1279.97C1278.05 24.1182 1276.71 24.7782 1276.71 27.2982V33.1182H1275.07V22.4382H1276.69V24.2782C1277.39 22.9182 1278.81 22.4382 1279.93 22.4382H1280.69V24.1182ZM1288.1 33.0582C1288.1 33.0582 1287.28 33.1782 1286.24 33.1782C1284.44 33.1782 1283.84 32.4182 1283.84 30.6382V23.8182H1282.08V22.4382H1283.84V19.1182H1285.48V22.4382H1288.24V23.8182H1285.48V30.2182C1285.48 31.5782 1285.78 31.7582 1286.86 31.7582C1287.16 31.7582 1288 31.6982 1288.1 31.6982V33.0582ZM1291.89 20.3182H1290.25V18.3182H1291.89V20.3182ZM1291.89 33.1182H1290.25V22.4382H1291.89V33.1182ZM1299.78 23.8182H1297.3V33.1182H1295.66V23.8182H1293.78V22.4382H1295.66V20.6382C1295.66 19.1182 1296.6 18.1982 1298.28 18.1982C1298.98 18.1982 1299.92 18.2382 1299.92 18.2382V19.6582C1299.82 19.6382 1299.02 19.6182 1298.74 19.6182C1297.88 19.6182 1297.3 19.7182 1297.3 20.8382V22.4382H1299.78V23.8182ZM1303.06 20.3182H1301.42V18.3182H1303.06V20.3182ZM1303.06 33.1182H1301.42V22.4382H1303.06V33.1182ZM1313.17 29.4382L1314.83 29.4582C1314.61 31.3382 1313.21 33.2582 1310.15 33.2582C1307.31 33.2582 1305.35 31.4182 1305.35 27.7982C1305.35 24.4782 1307.39 22.2982 1310.23 22.2982C1313.23 22.2982 1314.89 24.5382 1314.89 28.0582H1307.03C1307.07 30.0782 1307.91 31.8782 1310.27 31.8782C1312.01 31.8782 1313.03 30.7982 1313.17 29.4382ZM1307.09 26.7582H1313.11C1312.95 24.4982 1311.65 23.6782 1310.19 23.6782C1308.55 23.6782 1307.29 24.7782 1307.09 26.7582ZM1324.88 33.1182V31.6182C1324.34 32.3982 1323.16 33.2582 1321.32 33.2582C1318.26 33.2582 1316.7 30.9582 1316.7 27.8182C1316.7 24.7582 1318.38 22.2982 1321.64 22.2982C1323.5 22.2982 1324.52 23.2382 1324.86 23.6982V18.3182H1326.5V33.1182H1324.88ZM1318.38 27.7982C1318.38 30.4182 1319.54 31.9182 1321.56 31.9182C1323.86 31.9182 1324.88 30.5382 1324.88 27.6982C1324.88 24.8382 1323.88 23.6382 1321.68 23.6382C1319.4 23.6382 1318.38 25.5782 1318.38 27.7982Z" fill="#322D2D"/>
<defs>
<clipPath id="clip0_625_1852">
<rect width="27.3625" height="27.3625" fill="white" transform="translate(494.031 13.1562)"/>
</clipPath>
<clipPath id="clip1_625_1852">
<rect width="27.3625" height="27.3625" fill="white" transform="translate(696.965 13.1562)"/>
</clipPath>
<clipPath id="clip2_625_1852">
<rect width="25.9223" height="25.9223" fill="white" transform="translate(884.617 13.1562)"/>
</clipPath>
<clipPath id="clip3_625_1852">
<rect width="25.9223" height="25.9223" fill="white" transform="translate(1156.55 13.1562)"/>
</clipPath>
</defs>
</svg>
