<svg width="14" height="8" viewBox="0 0 14 8" fill="none" xmlns="http://www.w3.org/2000/svg">
<path d="M0.616211 3.36648C0.327002 3.36648 0.0925516 3.60093 0.0925516 3.89014C0.0925516 4.17935 0.327002 4.4138 0.616211 4.4138L0.616211 3.36648ZM13.4138 4.26042C13.6183 4.05592 13.6183 3.72436 13.4138 3.51985L10.0813 0.187307C9.87677 -0.0171949 9.5452 -0.017195 9.3407 0.187307C9.1362 0.391808 9.1362 0.723371 9.3407 0.927873L12.303 3.89014L9.3407 6.8524C9.1362 7.0569 9.1362 7.38847 9.3407 7.59297C9.5452 7.79747 9.87676 7.79747 10.0813 7.59297L13.4138 4.26042ZM0.616211 4.4138L13.0435 4.4138L13.0435 3.36648L0.616211 3.36648L0.616211 4.4138Z" fill="black"/>
</svg>
