<svg width="19" height="19" viewBox="0 0 19 19" fill="none" xmlns="http://www.w3.org/2000/svg">
<path fill-rule="evenodd" clip-rule="evenodd" d="M13.7002 0.428711H5.60991C2.81732 0.428711 0.553467 2.69256 0.553467 5.48515V13.5755C0.553467 16.368 2.81732 18.6319 5.60991 18.6319H13.7002C16.4928 18.6319 18.7567 16.368 18.7567 13.5755V5.48515C18.7567 2.69256 16.4928 0.428711 13.7002 0.428711ZM16.9869 13.5755C16.9813 15.3883 15.513 16.8566 13.7002 16.8621H5.60991C3.79702 16.8566 2.32877 15.3883 2.32322 13.5755V5.48515C2.32877 3.67227 3.79702 2.20402 5.60991 2.19847H13.7002C15.513 2.20402 16.9813 3.67227 16.9869 5.48515V13.5755ZM14.4587 5.73797C15.0172 5.73797 15.47 5.2852 15.47 4.72669C15.47 4.16817 15.0172 3.7154 14.4587 3.7154C13.9001 3.7154 13.4474 4.16817 13.4474 4.72669C13.4474 5.2852 13.9001 5.73797 14.4587 5.73797ZM9.65506 4.97951C7.14173 4.97951 5.10426 7.01697 5.10426 9.5303C5.10426 12.0437 7.14173 14.0811 9.65506 14.0811C12.1684 14.0811 14.2059 12.0437 14.2059 9.5303C14.2086 8.32252 13.7299 7.16345 12.8759 6.30943C12.0219 5.45541 10.8628 4.97682 9.65506 4.97951ZM6.87402 9.5303C6.87402 11.0662 8.11911 12.3113 9.65506 12.3113C11.191 12.3113 12.4361 11.0662 12.4361 9.5303C12.4361 7.99436 11.191 6.74926 9.65506 6.74926C8.11911 6.74926 6.87402 7.99436 6.87402 9.5303Z" fill="white"/>
</svg>
